<mxfile host="app.diagrams.net" modified="2020-08-24T15:20:03.020Z" agent="5.0 (Windows NT 10.0; Win64; x64) AppleWebKit/537.36 (KHTML, like Gecko) Chrome/84.0.4147.125 Safari/537.36 Edg/84.0.522.59" etag="lITMDbigWBEdn3tyjlPO" version="13.6.4" type="github" pages="3">
  <diagram name="Describe" id="03018318-947c-dd8e-b7a3-06fadd420f32">
    <mxGraphModel dx="782" dy="437" grid="1" gridSize="10" guides="1" tooltips="1" connect="1" arrows="1" fold="1" page="1" pageScale="1" pageWidth="1100" pageHeight="850" background="#ffffff" math="0" shadow="0">
      <root>
        <mxCell id="0" />
        <mxCell id="1" parent="0" />
        <mxCell id="677b7b8949515195-1" value="" style="whiteSpace=wrap;html=1;rounded=0;shadow=0;labelBackgroundColor=none;strokeColor=#000000;strokeWidth=1;fillColor=none;fontFamily=Verdana;fontSize=12;fontColor=#000000;align=center;comic=1;" parent="1" vertex="1">
          <mxGeometry x="20" y="20" width="1060" height="810" as="geometry" />
        </mxCell>
        <mxCell id="677b7b8949515195-2" value="LOGO" style="whiteSpace=wrap;html=1;rounded=0;shadow=0;labelBackgroundColor=none;strokeWidth=1;fontFamily=Verdana;fontSize=28;align=center;comic=1;" parent="1" vertex="1">
          <mxGeometry x="40" y="60" width="190" height="50" as="geometry" />
        </mxCell>
        <mxCell id="677b7b8949515195-4" value="Logout" style="text;html=1;points=[];align=left;verticalAlign=top;spacingTop=-4;fontSize=14;fontFamily=Verdana" parent="1" vertex="1">
          <mxGeometry x="1000" y="75" width="60" height="20" as="geometry" />
        </mxCell>
        <mxCell id="677b7b8949515195-9" value="" style="line;strokeWidth=1;html=1;rounded=0;shadow=0;labelBackgroundColor=none;fillColor=none;fontFamily=Verdana;fontSize=14;fontColor=#000000;align=center;comic=1;" parent="1" vertex="1">
          <mxGeometry x="20" y="140" width="1060" height="10" as="geometry" />
        </mxCell>
        <mxCell id="677b7b8949515195-10" value="" style="whiteSpace=wrap;html=1;rounded=0;shadow=0;labelBackgroundColor=none;strokeWidth=1;fillColor=none;fontFamily=Verdana;fontSize=12;align=center;comic=1;" parent="1" vertex="1">
          <mxGeometry x="20" y="160" width="1040" height="50" as="geometry" />
        </mxCell>
        <mxCell id="677b7b8949515195-11" value="Describe what you sell" style="text;html=1;points=[];align=left;verticalAlign=top;spacingTop=-4;fontSize=14;fontFamily=Verdana;fontStyle=1" parent="1" vertex="1">
          <mxGeometry x="50" y="175" width="60" height="20" as="geometry" />
        </mxCell>
        <mxCell id="677b7b8949515195-12" value="Define pricing" style="text;html=1;points=[];align=left;verticalAlign=top;spacingTop=-4;fontSize=14;fontFamily=Verdana" parent="1" vertex="1">
          <mxGeometry x="280" y="175" width="60" height="20" as="geometry" />
        </mxCell>
        <mxCell id="677b7b8949515195-13" value="Integrate" style="text;html=1;points=[];align=left;verticalAlign=top;spacingTop=-4;fontSize=14;fontFamily=Verdana" parent="1" vertex="1">
          <mxGeometry x="410" y="175" width="60" height="20" as="geometry" />
        </mxCell>
        <mxCell id="677b7b8949515195-14" value="Section 4" style="text;html=1;points=[];align=left;verticalAlign=top;spacingTop=-4;fontSize=14;fontFamily=Verdana" parent="1" vertex="1">
          <mxGeometry x="770" y="175" width="60" height="20" as="geometry" />
        </mxCell>
        <mxCell id="677b7b8949515195-25" value="" style="whiteSpace=wrap;html=1;rounded=0;shadow=0;labelBackgroundColor=none;strokeWidth=1;fillColor=none;fontFamily=Verdana;fontSize=12;align=center;comic=1;" parent="1" vertex="1">
          <mxGeometry x="840" y="230" width="230" height="400" as="geometry" />
        </mxCell>
        <mxCell id="677b7b8949515195-26" value="" style="whiteSpace=wrap;html=1;rounded=0;shadow=0;labelBackgroundColor=none;strokeWidth=1;fillColor=none;fontFamily=Verdana;fontSize=12;align=center;comic=1;" parent="1" vertex="1">
          <mxGeometry x="840" y="640" width="230" height="180" as="geometry" />
        </mxCell>
        <mxCell id="677b7b8949515195-42" value="External Links" style="text;html=1;points=[];align=left;verticalAlign=top;spacingTop=-4;fontSize=14;fontFamily=Verdana" parent="1" vertex="1">
          <mxGeometry x="860" y="653" width="170" height="20" as="geometry" />
        </mxCell>
        <mxCell id="677b7b8949515195-44" value="Feature 1" style="text;html=1;points=[];align=left;verticalAlign=top;spacingTop=-4;fontSize=14;fontFamily=Verdana" parent="1" vertex="1">
          <mxGeometry x="860" y="250" width="170" height="20" as="geometry" />
        </mxCell>
        <mxCell id="677b7b8949515195-45" value="Feature 2" style="text;html=1;points=[];align=left;verticalAlign=top;spacingTop=-4;fontSize=14;fontFamily=Verdana" parent="1" vertex="1">
          <mxGeometry x="860" y="285" width="170" height="20" as="geometry" />
        </mxCell>
        <mxCell id="677b7b8949515195-46" value="Feature 3" style="text;html=1;points=[];align=left;verticalAlign=top;spacingTop=-4;fontSize=14;fontFamily=Verdana" parent="1" vertex="1">
          <mxGeometry x="860" y="320" width="170" height="20" as="geometry" />
        </mxCell>
        <mxCell id="677b7b8949515195-47" value="Feature 4" style="text;html=1;points=[];align=left;verticalAlign=top;spacingTop=-4;fontSize=14;fontFamily=Verdana" parent="1" vertex="1">
          <mxGeometry x="860" y="355" width="170" height="20" as="geometry" />
        </mxCell>
        <mxCell id="677b7b8949515195-48" value="Feature 5" style="text;html=1;points=[];align=left;verticalAlign=top;spacingTop=-4;fontSize=14;fontFamily=Verdana" parent="1" vertex="1">
          <mxGeometry x="860" y="390" width="170" height="20" as="geometry" />
        </mxCell>
        <mxCell id="677b7b8949515195-49" value="Feature 6" style="text;html=1;points=[];align=left;verticalAlign=top;spacingTop=-4;fontSize=14;fontFamily=Verdana" parent="1" vertex="1">
          <mxGeometry x="860" y="425" width="170" height="20" as="geometry" />
        </mxCell>
        <mxCell id="VAvblGkpgL3IQrGG_vT8-2" value="" style="rounded=0;whiteSpace=wrap;html=1;" vertex="1" parent="1">
          <mxGeometry x="40" y="230" width="680" height="480" as="geometry" />
        </mxCell>
        <mxCell id="VAvblGkpgL3IQrGG_vT8-3" value="What are your pricing factors?" style="text;html=1;strokeColor=none;fillColor=none;align=center;verticalAlign=middle;whiteSpace=wrap;rounded=0;fontStyle=1;fontSize=14;" vertex="1" parent="1">
          <mxGeometry x="90" y="240" width="210" height="30" as="geometry" />
        </mxCell>
        <mxCell id="VAvblGkpgL3IQrGG_vT8-4" value="# of days" style="rounded=0;whiteSpace=wrap;html=1;" vertex="1" parent="1">
          <mxGeometry x="90" y="285" width="120" height="35" as="geometry" />
        </mxCell>
        <mxCell id="VAvblGkpgL3IQrGG_vT8-5" value="Number" style="strokeWidth=1;shadow=0;dashed=0;align=center;html=1;shape=mxgraph.mockup.forms.comboBox;strokeColor=#999999;fillColor=#ddeeff;align=left;fillColor2=#aaddff;mainText=;fontColor=#666666;fontSize=17;spacingLeft=3;" vertex="1" parent="1">
          <mxGeometry x="250" y="283" width="180" height="38" as="geometry" />
        </mxCell>
        <mxCell id="VAvblGkpgL3IQrGG_vT8-6" value="Room Type" style="rounded=0;whiteSpace=wrap;html=1;" vertex="1" parent="1">
          <mxGeometry x="90" y="340" width="120" height="35" as="geometry" />
        </mxCell>
        <mxCell id="VAvblGkpgL3IQrGG_vT8-7" value="One from the list" style="strokeWidth=1;shadow=0;dashed=0;align=center;html=1;shape=mxgraph.mockup.forms.comboBox;strokeColor=#999999;fillColor=#ddeeff;align=left;fillColor2=#aaddff;mainText=;fontColor=#666666;fontSize=17;spacingLeft=3;" vertex="1" parent="1">
          <mxGeometry x="250" y="341" width="180" height="34" as="geometry" />
        </mxCell>
        <mxCell id="VAvblGkpgL3IQrGG_vT8-8" value="Season" style="rounded=0;whiteSpace=wrap;html=1;" vertex="1" parent="1">
          <mxGeometry x="91" y="392" width="120" height="35" as="geometry" />
        </mxCell>
        <mxCell id="VAvblGkpgL3IQrGG_vT8-9" value="Date interval" style="strokeWidth=1;shadow=0;dashed=0;align=center;html=1;shape=mxgraph.mockup.forms.comboBox;strokeColor=#999999;fillColor=#ddeeff;align=left;fillColor2=#aaddff;mainText=;fontColor=#666666;fontSize=17;spacingLeft=3;" vertex="1" parent="1">
          <mxGeometry x="251" y="393" width="180" height="34" as="geometry" />
        </mxCell>
        <mxCell id="rb9dDnYzF7dDjR2Wv9qA-1" value="Configure" style="strokeWidth=1;shadow=0;dashed=0;align=center;html=1;shape=mxgraph.mockup.buttons.button;strokeColor=#666666;fontColor=#ffffff;mainText=;buttonStyle=round;fontSize=17;fontStyle=1;fillColor=#008cff;whiteSpace=wrap;" vertex="1" parent="1">
          <mxGeometry x="465" y="278" width="150" height="42" as="geometry" />
        </mxCell>
        <mxCell id="rb9dDnYzF7dDjR2Wv9qA-2" value="Configure" style="strokeWidth=1;shadow=0;dashed=0;align=center;html=1;shape=mxgraph.mockup.buttons.button;strokeColor=#666666;fontColor=#ffffff;mainText=;buttonStyle=round;fontSize=17;fontStyle=1;fillColor=#008cff;whiteSpace=wrap;" vertex="1" parent="1">
          <mxGeometry x="465" y="333" width="150" height="42" as="geometry" />
        </mxCell>
        <mxCell id="rb9dDnYzF7dDjR2Wv9qA-3" value="Configure" style="strokeWidth=1;shadow=0;dashed=0;align=center;html=1;shape=mxgraph.mockup.buttons.button;strokeColor=#666666;fontColor=#ffffff;mainText=;buttonStyle=round;fontSize=17;fontStyle=1;fillColor=#008cff;whiteSpace=wrap;" vertex="1" parent="1">
          <mxGeometry x="465" y="385" width="150" height="42" as="geometry" />
        </mxCell>
      </root>
    </mxGraphModel>
  </diagram>
  <diagram name="Define Price" id="Bd6a1_s-znTlWcoc43wL">
    <mxGraphModel dx="782" dy="437" grid="1" gridSize="10" guides="1" tooltips="1" connect="1" arrows="1" fold="1" page="1" pageScale="1" pageWidth="1100" pageHeight="850" background="#ffffff" math="0" shadow="0">
      <root>
        <mxCell id="TM6UY1Rh7OmBlUZr9voo-0" />
        <mxCell id="TM6UY1Rh7OmBlUZr9voo-1" parent="TM6UY1Rh7OmBlUZr9voo-0" />
        <mxCell id="TM6UY1Rh7OmBlUZr9voo-2" value="" style="whiteSpace=wrap;html=1;rounded=0;shadow=0;labelBackgroundColor=none;strokeColor=#000000;strokeWidth=1;fillColor=none;fontFamily=Verdana;fontSize=12;fontColor=#000000;align=center;comic=1;" vertex="1" parent="TM6UY1Rh7OmBlUZr9voo-1">
          <mxGeometry x="20" y="20" width="1060" height="810" as="geometry" />
        </mxCell>
        <mxCell id="TM6UY1Rh7OmBlUZr9voo-3" value="LOGO" style="whiteSpace=wrap;html=1;rounded=0;shadow=0;labelBackgroundColor=none;strokeWidth=1;fontFamily=Verdana;fontSize=28;align=center;comic=1;" vertex="1" parent="TM6UY1Rh7OmBlUZr9voo-1">
          <mxGeometry x="40" y="60" width="190" height="50" as="geometry" />
        </mxCell>
        <mxCell id="TM6UY1Rh7OmBlUZr9voo-4" value="Logout" style="text;html=1;points=[];align=left;verticalAlign=top;spacingTop=-4;fontSize=14;fontFamily=Verdana" vertex="1" parent="TM6UY1Rh7OmBlUZr9voo-1">
          <mxGeometry x="1000" y="75" width="60" height="20" as="geometry" />
        </mxCell>
        <mxCell id="TM6UY1Rh7OmBlUZr9voo-5" value="" style="line;strokeWidth=1;html=1;rounded=0;shadow=0;labelBackgroundColor=none;fillColor=none;fontFamily=Verdana;fontSize=14;fontColor=#000000;align=center;comic=1;" vertex="1" parent="TM6UY1Rh7OmBlUZr9voo-1">
          <mxGeometry x="20" y="140" width="1060" height="10" as="geometry" />
        </mxCell>
        <mxCell id="TM6UY1Rh7OmBlUZr9voo-6" value="" style="whiteSpace=wrap;html=1;rounded=0;shadow=0;labelBackgroundColor=none;strokeWidth=1;fillColor=none;fontFamily=Verdana;fontSize=12;align=center;comic=1;" vertex="1" parent="TM6UY1Rh7OmBlUZr9voo-1">
          <mxGeometry x="20" y="160" width="1040" height="50" as="geometry" />
        </mxCell>
        <mxCell id="TM6UY1Rh7OmBlUZr9voo-7" value="Describe what you sell" style="text;html=1;points=[];align=left;verticalAlign=top;spacingTop=-4;fontSize=14;fontFamily=Verdana;fontStyle=0" vertex="1" parent="TM6UY1Rh7OmBlUZr9voo-1">
          <mxGeometry x="50" y="175" width="60" height="20" as="geometry" />
        </mxCell>
        <mxCell id="TM6UY1Rh7OmBlUZr9voo-8" value="Define pricing" style="text;html=1;points=[];align=left;verticalAlign=top;spacingTop=-4;fontSize=14;fontFamily=Verdana;fontStyle=1" vertex="1" parent="TM6UY1Rh7OmBlUZr9voo-1">
          <mxGeometry x="268" y="175" width="60" height="20" as="geometry" />
        </mxCell>
        <mxCell id="TM6UY1Rh7OmBlUZr9voo-9" value="Integrate" style="text;html=1;points=[];align=left;verticalAlign=top;spacingTop=-4;fontSize=14;fontFamily=Verdana" vertex="1" parent="TM6UY1Rh7OmBlUZr9voo-1">
          <mxGeometry x="410" y="175" width="60" height="20" as="geometry" />
        </mxCell>
        <mxCell id="TM6UY1Rh7OmBlUZr9voo-10" value="Section 4" style="text;html=1;points=[];align=left;verticalAlign=top;spacingTop=-4;fontSize=14;fontFamily=Verdana" vertex="1" parent="TM6UY1Rh7OmBlUZr9voo-1">
          <mxGeometry x="770" y="175" width="60" height="20" as="geometry" />
        </mxCell>
        <mxCell id="TM6UY1Rh7OmBlUZr9voo-11" value="" style="whiteSpace=wrap;html=1;rounded=0;shadow=0;labelBackgroundColor=none;strokeWidth=1;fillColor=none;fontFamily=Verdana;fontSize=12;align=center;comic=1;" vertex="1" parent="TM6UY1Rh7OmBlUZr9voo-1">
          <mxGeometry x="840" y="230" width="230" height="400" as="geometry" />
        </mxCell>
        <mxCell id="TM6UY1Rh7OmBlUZr9voo-12" value="" style="whiteSpace=wrap;html=1;rounded=0;shadow=0;labelBackgroundColor=none;strokeWidth=1;fillColor=none;fontFamily=Verdana;fontSize=12;align=center;comic=1;" vertex="1" parent="TM6UY1Rh7OmBlUZr9voo-1">
          <mxGeometry x="840" y="640" width="230" height="180" as="geometry" />
        </mxCell>
        <mxCell id="TM6UY1Rh7OmBlUZr9voo-13" value="External Links" style="text;html=1;points=[];align=left;verticalAlign=top;spacingTop=-4;fontSize=14;fontFamily=Verdana" vertex="1" parent="TM6UY1Rh7OmBlUZr9voo-1">
          <mxGeometry x="860" y="653" width="170" height="20" as="geometry" />
        </mxCell>
        <mxCell id="TM6UY1Rh7OmBlUZr9voo-14" value="Feature 1" style="text;html=1;points=[];align=left;verticalAlign=top;spacingTop=-4;fontSize=14;fontFamily=Verdana" vertex="1" parent="TM6UY1Rh7OmBlUZr9voo-1">
          <mxGeometry x="860" y="250" width="170" height="20" as="geometry" />
        </mxCell>
        <mxCell id="TM6UY1Rh7OmBlUZr9voo-15" value="Feature 2" style="text;html=1;points=[];align=left;verticalAlign=top;spacingTop=-4;fontSize=14;fontFamily=Verdana" vertex="1" parent="TM6UY1Rh7OmBlUZr9voo-1">
          <mxGeometry x="860" y="285" width="170" height="20" as="geometry" />
        </mxCell>
        <mxCell id="TM6UY1Rh7OmBlUZr9voo-16" value="Feature 3" style="text;html=1;points=[];align=left;verticalAlign=top;spacingTop=-4;fontSize=14;fontFamily=Verdana" vertex="1" parent="TM6UY1Rh7OmBlUZr9voo-1">
          <mxGeometry x="860" y="320" width="170" height="20" as="geometry" />
        </mxCell>
        <mxCell id="TM6UY1Rh7OmBlUZr9voo-17" value="Feature 4" style="text;html=1;points=[];align=left;verticalAlign=top;spacingTop=-4;fontSize=14;fontFamily=Verdana" vertex="1" parent="TM6UY1Rh7OmBlUZr9voo-1">
          <mxGeometry x="860" y="355" width="170" height="20" as="geometry" />
        </mxCell>
        <mxCell id="TM6UY1Rh7OmBlUZr9voo-18" value="Feature 5" style="text;html=1;points=[];align=left;verticalAlign=top;spacingTop=-4;fontSize=14;fontFamily=Verdana" vertex="1" parent="TM6UY1Rh7OmBlUZr9voo-1">
          <mxGeometry x="860" y="390" width="170" height="20" as="geometry" />
        </mxCell>
        <mxCell id="TM6UY1Rh7OmBlUZr9voo-19" value="Feature 6" style="text;html=1;points=[];align=left;verticalAlign=top;spacingTop=-4;fontSize=14;fontFamily=Verdana" vertex="1" parent="TM6UY1Rh7OmBlUZr9voo-1">
          <mxGeometry x="860" y="425" width="170" height="20" as="geometry" />
        </mxCell>
        <mxCell id="TM6UY1Rh7OmBlUZr9voo-20" value="" style="rounded=0;whiteSpace=wrap;html=1;" vertex="1" parent="TM6UY1Rh7OmBlUZr9voo-1">
          <mxGeometry x="40" y="230" width="680" height="480" as="geometry" />
        </mxCell>
        <mxCell id="TM6UY1Rh7OmBlUZr9voo-21" value="Do you have a base price?" style="text;html=1;strokeColor=none;fillColor=none;align=center;verticalAlign=middle;whiteSpace=wrap;rounded=0;fontStyle=1;fontSize=14;" vertex="1" parent="TM6UY1Rh7OmBlUZr9voo-1">
          <mxGeometry x="80" y="240" width="210" height="30" as="geometry" />
        </mxCell>
        <mxCell id="ZB2ubg_kUGfyaOafx7bW-0" value="No" style="shape=ellipse;fillColor=#eeeeee;strokeColor=#999999;gradientColor=#cccccc;html=1;align=left;spacingLeft=4;fontSize=17;fontColor=#666666;labelPosition=right;shadow=0;" vertex="1" parent="TM6UY1Rh7OmBlUZr9voo-1">
          <mxGeometry x="95" y="288" width="15" height="15" as="geometry" />
        </mxCell>
        <mxCell id="ZB2ubg_kUGfyaOafx7bW-3" value="Yes" style="shape=ellipse;strokeColor=#999999;gradientColor=#cccccc;html=1;align=left;spacingLeft=4;fontSize=17;fontColor=#666666;labelPosition=right;shadow=1;sketch=0;fillColor=#000000;" vertex="1" parent="TM6UY1Rh7OmBlUZr9voo-1">
          <mxGeometry x="160" y="290" width="15" height="15" as="geometry" />
        </mxCell>
        <mxCell id="ZB2ubg_kUGfyaOafx7bW-5" value="50.00" style="rounded=0;whiteSpace=wrap;html=1;shadow=1;sketch=0;fontSize=14;" vertex="1" parent="TM6UY1Rh7OmBlUZr9voo-1">
          <mxGeometry x="238" y="280" width="120" height="30" as="geometry" />
        </mxCell>
        <mxCell id="ZB2ubg_kUGfyaOafx7bW-6" value="Configure" style="strokeWidth=1;shadow=0;dashed=0;align=center;html=1;shape=mxgraph.mockup.buttons.button;strokeColor=#666666;fontColor=#ffffff;mainText=;buttonStyle=round;fontSize=17;fontStyle=1;fillColor=#008cff;whiteSpace=wrap;sketch=0;" vertex="1" parent="TM6UY1Rh7OmBlUZr9voo-1">
          <mxGeometry x="420" y="280" width="150" height="30" as="geometry" />
        </mxCell>
        <mxCell id="9_rkMa-Fps06MTqDm5gZ-0" value="How do you apply discounts/surcharges?" style="text;html=1;strokeColor=none;fillColor=none;align=center;verticalAlign=middle;whiteSpace=wrap;rounded=0;fontStyle=1;fontSize=14;" vertex="1" parent="TM6UY1Rh7OmBlUZr9voo-1">
          <mxGeometry x="80" y="333" width="210" height="37" as="geometry" />
        </mxCell>
        <mxCell id="Fh2l21H2wbt1PVBobIBq-0" value="# of days" style="rounded=0;whiteSpace=wrap;html=1;" vertex="1" parent="TM6UY1Rh7OmBlUZr9voo-1">
          <mxGeometry x="95" y="390" width="120" height="35" as="geometry" />
        </mxCell>
        <mxCell id="Fh2l21H2wbt1PVBobIBq-3" value="2-5 apply -5%&lt;br&gt;&amp;gt;5 apply -7%" style="rounded=0;whiteSpace=wrap;html=1;shadow=1;sketch=0;fillColor=none;fontSize=14;" vertex="1" parent="TM6UY1Rh7OmBlUZr9voo-1">
          <mxGeometry x="230" y="385" width="150" height="60" as="geometry" />
        </mxCell>
        <mxCell id="Fh2l21H2wbt1PVBobIBq-4" value="Configure" style="strokeWidth=1;shadow=0;dashed=0;align=center;html=1;shape=mxgraph.mockup.buttons.button;strokeColor=#666666;fontColor=#ffffff;mainText=;buttonStyle=round;fontSize=17;fontStyle=1;fillColor=#008cff;whiteSpace=wrap;sketch=0;" vertex="1" parent="TM6UY1Rh7OmBlUZr9voo-1">
          <mxGeometry x="420" y="385" width="150" height="30" as="geometry" />
        </mxCell>
        <mxCell id="dq4sFQ3HrNoHMEnXWXfJ-0" value="Room Type" style="rounded=0;whiteSpace=wrap;html=1;" vertex="1" parent="TM6UY1Rh7OmBlUZr9voo-1">
          <mxGeometry x="90" y="480" width="120" height="35" as="geometry" />
        </mxCell>
        <mxCell id="dq4sFQ3HrNoHMEnXWXfJ-1" value="Suite add +20&lt;br&gt;Deluxe add + 30" style="rounded=0;whiteSpace=wrap;html=1;shadow=1;sketch=0;fillColor=none;fontSize=14;" vertex="1" parent="TM6UY1Rh7OmBlUZr9voo-1">
          <mxGeometry x="230" y="480" width="150" height="60" as="geometry" />
        </mxCell>
        <mxCell id="E4qv9KW6hw17Dze63xpM-0" value="Season" style="rounded=0;whiteSpace=wrap;html=1;" vertex="1" parent="TM6UY1Rh7OmBlUZr9voo-1">
          <mxGeometry x="90" y="570" width="120" height="35" as="geometry" />
        </mxCell>
        <mxCell id="E4qv9KW6hw17Dze63xpM-1" value="Weekend apply +10%&lt;br&gt;Vacation apply +15%" style="rounded=0;whiteSpace=wrap;html=1;shadow=1;sketch=0;fillColor=none;fontSize=14;" vertex="1" parent="TM6UY1Rh7OmBlUZr9voo-1">
          <mxGeometry x="230" y="570" width="150" height="60" as="geometry" />
        </mxCell>
        <mxCell id="E4qv9KW6hw17Dze63xpM-2" value="Configure" style="strokeWidth=1;shadow=0;dashed=0;align=center;html=1;shape=mxgraph.mockup.buttons.button;strokeColor=#666666;fontColor=#ffffff;mainText=;buttonStyle=round;fontSize=17;fontStyle=1;fillColor=#008cff;whiteSpace=wrap;sketch=0;" vertex="1" parent="TM6UY1Rh7OmBlUZr9voo-1">
          <mxGeometry x="420" y="480" width="150" height="30" as="geometry" />
        </mxCell>
        <mxCell id="E4qv9KW6hw17Dze63xpM-3" value="Configure" style="strokeWidth=1;shadow=0;dashed=0;align=center;html=1;shape=mxgraph.mockup.buttons.button;strokeColor=#666666;fontColor=#ffffff;mainText=;buttonStyle=round;fontSize=17;fontStyle=1;fillColor=#008cff;whiteSpace=wrap;sketch=0;" vertex="1" parent="TM6UY1Rh7OmBlUZr9voo-1">
          <mxGeometry x="420" y="570" width="150" height="30" as="geometry" />
        </mxCell>
      </root>
    </mxGraphModel>
  </diagram>
  <diagram name="Integrate" id="cPY1eUBHP6y-z0ZxZ7zd">
    <mxGraphModel dx="782" dy="437" grid="1" gridSize="10" guides="1" tooltips="1" connect="1" arrows="1" fold="1" page="1" pageScale="1" pageWidth="1100" pageHeight="850" background="#ffffff" math="0" shadow="0">
      <root>
        <mxCell id="HDoZItW3fBK3TVjDR4mh-0" />
        <mxCell id="HDoZItW3fBK3TVjDR4mh-1" parent="HDoZItW3fBK3TVjDR4mh-0" />
        <mxCell id="HDoZItW3fBK3TVjDR4mh-2" value="" style="whiteSpace=wrap;html=1;rounded=0;shadow=0;labelBackgroundColor=none;strokeColor=#000000;strokeWidth=1;fillColor=none;fontFamily=Verdana;fontSize=12;fontColor=#000000;align=center;comic=1;" vertex="1" parent="HDoZItW3fBK3TVjDR4mh-1">
          <mxGeometry x="20" y="20" width="1060" height="810" as="geometry" />
        </mxCell>
        <mxCell id="HDoZItW3fBK3TVjDR4mh-3" value="LOGO" style="whiteSpace=wrap;html=1;rounded=0;shadow=0;labelBackgroundColor=none;strokeWidth=1;fontFamily=Verdana;fontSize=28;align=center;comic=1;" vertex="1" parent="HDoZItW3fBK3TVjDR4mh-1">
          <mxGeometry x="40" y="60" width="190" height="50" as="geometry" />
        </mxCell>
        <mxCell id="HDoZItW3fBK3TVjDR4mh-4" value="Logout" style="text;html=1;points=[];align=left;verticalAlign=top;spacingTop=-4;fontSize=14;fontFamily=Verdana" vertex="1" parent="HDoZItW3fBK3TVjDR4mh-1">
          <mxGeometry x="1000" y="75" width="60" height="20" as="geometry" />
        </mxCell>
        <mxCell id="HDoZItW3fBK3TVjDR4mh-5" value="" style="line;strokeWidth=1;html=1;rounded=0;shadow=0;labelBackgroundColor=none;fillColor=none;fontFamily=Verdana;fontSize=14;fontColor=#000000;align=center;comic=1;" vertex="1" parent="HDoZItW3fBK3TVjDR4mh-1">
          <mxGeometry x="20" y="140" width="1060" height="10" as="geometry" />
        </mxCell>
        <mxCell id="HDoZItW3fBK3TVjDR4mh-6" value="" style="whiteSpace=wrap;html=1;rounded=0;shadow=0;labelBackgroundColor=none;strokeWidth=1;fillColor=none;fontFamily=Verdana;fontSize=12;align=center;comic=1;" vertex="1" parent="HDoZItW3fBK3TVjDR4mh-1">
          <mxGeometry x="20" y="160" width="1040" height="50" as="geometry" />
        </mxCell>
        <mxCell id="HDoZItW3fBK3TVjDR4mh-7" value="Describe what you sell" style="text;html=1;points=[];align=left;verticalAlign=top;spacingTop=-4;fontSize=14;fontFamily=Verdana;fontStyle=0" vertex="1" parent="HDoZItW3fBK3TVjDR4mh-1">
          <mxGeometry x="50" y="175" width="60" height="20" as="geometry" />
        </mxCell>
        <mxCell id="HDoZItW3fBK3TVjDR4mh-8" value="Define pricing" style="text;html=1;points=[];align=left;verticalAlign=top;spacingTop=-4;fontSize=14;fontFamily=Verdana;fontStyle=0" vertex="1" parent="HDoZItW3fBK3TVjDR4mh-1">
          <mxGeometry x="268" y="175" width="60" height="20" as="geometry" />
        </mxCell>
        <mxCell id="HDoZItW3fBK3TVjDR4mh-9" value="Integrate" style="text;html=1;points=[];align=left;verticalAlign=top;spacingTop=-4;fontSize=14;fontFamily=Verdana;fontStyle=1" vertex="1" parent="HDoZItW3fBK3TVjDR4mh-1">
          <mxGeometry x="410" y="175" width="60" height="20" as="geometry" />
        </mxCell>
        <mxCell id="HDoZItW3fBK3TVjDR4mh-10" value="Section 4" style="text;html=1;points=[];align=left;verticalAlign=top;spacingTop=-4;fontSize=14;fontFamily=Verdana" vertex="1" parent="HDoZItW3fBK3TVjDR4mh-1">
          <mxGeometry x="770" y="175" width="60" height="20" as="geometry" />
        </mxCell>
        <mxCell id="HDoZItW3fBK3TVjDR4mh-11" value="" style="whiteSpace=wrap;html=1;rounded=0;shadow=0;labelBackgroundColor=none;strokeWidth=1;fillColor=none;fontFamily=Verdana;fontSize=12;align=center;comic=1;" vertex="1" parent="HDoZItW3fBK3TVjDR4mh-1">
          <mxGeometry x="840" y="230" width="230" height="400" as="geometry" />
        </mxCell>
        <mxCell id="HDoZItW3fBK3TVjDR4mh-12" value="" style="whiteSpace=wrap;html=1;rounded=0;shadow=0;labelBackgroundColor=none;strokeWidth=1;fillColor=none;fontFamily=Verdana;fontSize=12;align=center;comic=1;" vertex="1" parent="HDoZItW3fBK3TVjDR4mh-1">
          <mxGeometry x="840" y="640" width="230" height="180" as="geometry" />
        </mxCell>
        <mxCell id="HDoZItW3fBK3TVjDR4mh-13" value="External Links" style="text;html=1;points=[];align=left;verticalAlign=top;spacingTop=-4;fontSize=14;fontFamily=Verdana" vertex="1" parent="HDoZItW3fBK3TVjDR4mh-1">
          <mxGeometry x="860" y="653" width="170" height="20" as="geometry" />
        </mxCell>
        <mxCell id="HDoZItW3fBK3TVjDR4mh-14" value="Feature 1" style="text;html=1;points=[];align=left;verticalAlign=top;spacingTop=-4;fontSize=14;fontFamily=Verdana" vertex="1" parent="HDoZItW3fBK3TVjDR4mh-1">
          <mxGeometry x="860" y="250" width="170" height="20" as="geometry" />
        </mxCell>
        <mxCell id="HDoZItW3fBK3TVjDR4mh-15" value="Feature 2" style="text;html=1;points=[];align=left;verticalAlign=top;spacingTop=-4;fontSize=14;fontFamily=Verdana" vertex="1" parent="HDoZItW3fBK3TVjDR4mh-1">
          <mxGeometry x="860" y="285" width="170" height="20" as="geometry" />
        </mxCell>
        <mxCell id="HDoZItW3fBK3TVjDR4mh-16" value="Feature 3" style="text;html=1;points=[];align=left;verticalAlign=top;spacingTop=-4;fontSize=14;fontFamily=Verdana" vertex="1" parent="HDoZItW3fBK3TVjDR4mh-1">
          <mxGeometry x="860" y="320" width="170" height="20" as="geometry" />
        </mxCell>
        <mxCell id="HDoZItW3fBK3TVjDR4mh-17" value="Feature 4" style="text;html=1;points=[];align=left;verticalAlign=top;spacingTop=-4;fontSize=14;fontFamily=Verdana" vertex="1" parent="HDoZItW3fBK3TVjDR4mh-1">
          <mxGeometry x="860" y="355" width="170" height="20" as="geometry" />
        </mxCell>
        <mxCell id="HDoZItW3fBK3TVjDR4mh-18" value="Feature 5" style="text;html=1;points=[];align=left;verticalAlign=top;spacingTop=-4;fontSize=14;fontFamily=Verdana" vertex="1" parent="HDoZItW3fBK3TVjDR4mh-1">
          <mxGeometry x="860" y="390" width="170" height="20" as="geometry" />
        </mxCell>
        <mxCell id="HDoZItW3fBK3TVjDR4mh-19" value="Feature 6" style="text;html=1;points=[];align=left;verticalAlign=top;spacingTop=-4;fontSize=14;fontFamily=Verdana" vertex="1" parent="HDoZItW3fBK3TVjDR4mh-1">
          <mxGeometry x="860" y="425" width="170" height="20" as="geometry" />
        </mxCell>
        <mxCell id="HDoZItW3fBK3TVjDR4mh-20" value="" style="rounded=0;whiteSpace=wrap;html=1;" vertex="1" parent="HDoZItW3fBK3TVjDR4mh-1">
          <mxGeometry x="40" y="230" width="680" height="480" as="geometry" />
        </mxCell>
        <mxCell id="HDoZItW3fBK3TVjDR4mh-21" value="Integrate the UI component" style="text;html=1;strokeColor=none;fillColor=none;align=center;verticalAlign=middle;whiteSpace=wrap;rounded=0;fontStyle=1;fontSize=14;" vertex="1" parent="HDoZItW3fBK3TVjDR4mh-1">
          <mxGeometry x="80" y="240" width="210" height="30" as="geometry" />
        </mxCell>
        <mxCell id="HDoZItW3fBK3TVjDR4mh-26" value="Use API" style="text;html=1;strokeColor=none;fillColor=none;align=center;verticalAlign=middle;whiteSpace=wrap;rounded=0;fontStyle=1;fontSize=14;" vertex="1" parent="HDoZItW3fBK3TVjDR4mh-1">
          <mxGeometry x="80" y="476.5" width="210" height="37" as="geometry" />
        </mxCell>
        <mxCell id="HDoZItW3fBK3TVjDR4mh-34" value="Configure" style="strokeWidth=1;shadow=0;dashed=0;align=center;html=1;shape=mxgraph.mockup.buttons.button;strokeColor=#666666;fontColor=#ffffff;mainText=;buttonStyle=round;fontSize=17;fontStyle=1;fillColor=#008cff;whiteSpace=wrap;sketch=0;" vertex="1" parent="HDoZItW3fBK3TVjDR4mh-1">
          <mxGeometry x="420" y="480" width="150" height="30" as="geometry" />
        </mxCell>
        <mxCell id="HDoZItW3fBK3TVjDR4mh-37" value="" style="rounded=0;whiteSpace=wrap;html=1;shadow=1;sketch=0;fillColor=none;fontSize=14;fontColor=#0000FF;" vertex="1" parent="HDoZItW3fBK3TVjDR4mh-1">
          <mxGeometry x="340" y="250" width="270" height="170" as="geometry" />
        </mxCell>
        <mxCell id="HDoZItW3fBK3TVjDR4mh-38" value="From" style="text;html=1;strokeColor=none;fillColor=none;align=center;verticalAlign=middle;whiteSpace=wrap;rounded=0;shadow=1;sketch=0;fontSize=14;" vertex="1" parent="HDoZItW3fBK3TVjDR4mh-1">
          <mxGeometry x="360" y="270" width="40" height="20" as="geometry" />
        </mxCell>
        <mxCell id="HDoZItW3fBK3TVjDR4mh-39" value="To" style="text;html=1;strokeColor=none;fillColor=none;align=center;verticalAlign=middle;whiteSpace=wrap;rounded=0;shadow=1;sketch=0;fontSize=14;" vertex="1" parent="HDoZItW3fBK3TVjDR4mh-1">
          <mxGeometry x="351" y="300" width="40" height="20" as="geometry" />
        </mxCell>
        <mxCell id="HDoZItW3fBK3TVjDR4mh-40" value="Room Type" style="text;html=1;strokeColor=none;fillColor=none;align=center;verticalAlign=middle;whiteSpace=wrap;rounded=0;shadow=1;sketch=0;fontSize=14;" vertex="1" parent="HDoZItW3fBK3TVjDR4mh-1">
          <mxGeometry x="358" y="330" width="90" height="20" as="geometry" />
        </mxCell>
        <mxCell id="qlyx4LxoYIMKVgX4Y8Jc-0" value="25.05.2020" style="rounded=0;whiteSpace=wrap;html=1;shadow=1;sketch=0;fillColor=none;fontSize=14;fontColor=#000000;" vertex="1" parent="HDoZItW3fBK3TVjDR4mh-1">
          <mxGeometry x="460" y="265" width="120" height="25" as="geometry" />
        </mxCell>
        <mxCell id="qlyx4LxoYIMKVgX4Y8Jc-1" value="30.05.2020" style="rounded=0;whiteSpace=wrap;html=1;shadow=1;sketch=0;fillColor=none;fontSize=14;fontColor=#000000;" vertex="1" parent="HDoZItW3fBK3TVjDR4mh-1">
          <mxGeometry x="460" y="300" width="120" height="25" as="geometry" />
        </mxCell>
        <mxCell id="qlyx4LxoYIMKVgX4Y8Jc-2" value="Deluxe" style="strokeWidth=1;shadow=0;dashed=0;align=center;html=1;shape=mxgraph.mockup.forms.comboBox;strokeColor=#999999;fillColor=#ddeeff;align=left;fillColor2=#aaddff;mainText=;fontColor=#666666;fontSize=17;spacingLeft=3;sketch=0;" vertex="1" parent="HDoZItW3fBK3TVjDR4mh-1">
          <mxGeometry x="460" y="335" width="120" height="20" as="geometry" />
        </mxCell>
        <mxCell id="qlyx4LxoYIMKVgX4Y8Jc-3" value="Calculate" style="strokeWidth=1;shadow=0;dashed=0;align=center;html=1;shape=mxgraph.mockup.buttons.button;strokeColor=#666666;fontColor=#ffffff;mainText=;buttonStyle=round;fontSize=17;fontStyle=1;fillColor=#008cff;whiteSpace=wrap;sketch=0;" vertex="1" parent="HDoZItW3fBK3TVjDR4mh-1">
          <mxGeometry x="410" y="375" width="150" height="30" as="geometry" />
        </mxCell>
        <mxCell id="qlyx4LxoYIMKVgX4Y8Jc-4" value="Instructions" style="text;html=1;strokeColor=none;fillColor=none;align=center;verticalAlign=middle;whiteSpace=wrap;rounded=0;fontStyle=2;fontSize=14;fontColor=#0000FF;" vertex="1" parent="HDoZItW3fBK3TVjDR4mh-1">
          <mxGeometry x="90" y="265" width="210" height="30" as="geometry" />
        </mxCell>
      </root>
    </mxGraphModel>
  </diagram>
</mxfile>
